# Blender v2.80 (sub 75) OBJ File: ''
# www.blender.org
mtllib cube.mtl
o Cube
v 1.000000 4.000000 -1.000000
v 1.000000 -1.000000 -1.000000
v 1.000000 4.000000 1.000000
v 1.000000 -1.000000 1.000000
v -1.000000 4.000000 -1.000000
v -1.000000 -1.000000 -1.000000
v -1.000000 4.000000 1.000000
v -1.000000 -1.000000 1.000000
vt 0.499900 0.500100
vt 0.000100 0.999900
vt 0.000100 0.500100
vt 0.497241 -0.000250
vt 0.996507 0.999892
vt 0.497241 0.999892
vt -0.000800 0.000090
vt 0.497674 0.999910
vt -0.000800 0.999910
vt 0.499900 0.000100
vt 0.000100 0.499900
vt 0.000100 0.000100
vt -0.002025 -0.000249
vt -0.002025 0.999892
vt 0.497674 0.000089
vt 0.996149 0.999911
vt 0.499900 0.999900
vt 0.996507 -0.000250
vt 0.499900 0.499900
vt 0.996149 0.000090
vn 0.0000 1.0000 0.0000
vn 0.0000 0.0000 1.0000
vn -1.0000 0.0000 0.0000
vn 0.0000 -1.0000 0.0000
vn 1.0000 0.0000 0.0000
vn 0.0000 0.0000 -1.0000
usemtl Material
s off
f 5/1/1 3/2/1 1/3/1
f 3/4/2 8/5/2 4/6/2
f 7/7/3 6/8/3 8/9/3
f 2/10/4 8/11/4 6/12/4
f 1/13/5 4/6/5 2/14/5
f 5/15/6 2/16/6 6/8/6
f 5/1/1 7/17/1 3/2/1
f 3/4/2 7/18/2 8/5/2
f 7/7/3 5/15/3 6/8/3
f 2/10/4 4/19/4 8/11/4
f 1/13/5 3/4/5 4/6/5
f 5/15/6 1/20/6 2/16/6
