# Blender v2.80 (sub 75) OBJ File: 'NatureFreePack1.blend'
# www.blender.org
mtllib Dead_Tree.mtl
o Tree1.003_Cube.012
v -1.337078 0.000148 -0.569694
v -1.381100 12.777566 -2.884969
v 3.638510 8.057968 -0.214972
v 3.619465 8.390056 -0.144478
v 1.735084 9.035297 3.910149
v 2.101732 9.035297 3.917880
v 3.635233 11.580379 2.106042
v 3.546705 11.612530 1.706606
v 2.441188 14.340356 0.325568
v 2.326855 14.691319 0.505311
v 2.338779 14.691319 0.138776
v -1.778462 15.135994 -0.163091
v -1.598852 15.436585 -0.120879
v 0.413541 19.018179 1.617215
v 0.259613 19.109627 1.297162
v 0.590106 19.109627 1.138214
v -3.339770 7.414594 0.843530
v -1.296485 6.065244 0.236130
v -1.783034 6.065244 -0.612671
v -1.527653 6.998272 -0.759060
v -1.041104 6.998272 0.089740
v -3.418894 7.077713 0.888885
v 0.513151 14.627746 0.549363
v -0.380054 15.119381 0.299602
v 0.262882 14.701978 -0.118958
v 0.744033 19.018179 1.458266
v -0.823528 14.305408 0.366263
v -0.687704 14.305408 -0.211671
v -0.371407 14.802286 -0.137336
v -0.104500 14.995078 0.876094
v 0.719402 13.975118 -0.036954
v 0.433727 13.850527 0.516598
v -0.407012 12.883280 0.184203
v -0.388811 13.099832 -0.553910
v 0.330789 13.228389 -0.548229
v -0.993458 11.848742 -1.372704
v -0.244608 12.539525 -1.584779
v -0.848670 12.539525 -1.164568
v -1.678042 12.781912 -2.692831
v 2.377643 7.575238 0.588002
v 2.768429 8.400678 1.293690
v 2.857202 7.575238 1.059435
v 2.299329 7.763036 2.429462
v 1.511471 7.249072 1.744293
v 1.673155 8.385558 1.900950
v 2.502694 8.357393 2.051586
v 1.913854 8.737987 4.130033
v 1.946238 8.350617 0.969427
v 3.869246 11.459872 1.791183
v 0.984721 6.118405 -0.350915
v 0.151195 6.118405 0.470122
v 0.587256 7.351036 -0.925935
v 1.962833 6.955087 0.797985
v 0.945812 7.749818 1.130871
v 1.625942 7.731541 0.474317
v -0.106090 7.361926 0.064280
v -1.130615 7.593569 -0.645583
v -0.458511 7.593569 -1.677316
v 0.591727 10.809941 -0.871960
v 0.030483 10.809941 -0.010404
v -0.829607 10.869898 -0.570694
v -0.222490 11.592105 -1.522436
v 0.575354 0.000049 -1.333008
v 1.349177 0.000740 0.572813
v -0.582963 0.000255 1.341056
v -1.231258 4.743126 -1.090856
v 0.138298 4.743126 -1.639157
v 0.680318 4.965782 -0.285290
v -0.689238 4.965782 0.263011
v -0.823528 14.305408 0.366263
v -0.687704 14.305408 -0.211671
v -0.371407 14.802286 -0.137336
v -0.507231 14.802286 0.440598
vt 0.917571 0.154877
vt 0.959397 0.275815
vt 0.929499 0.286493
vt 0.909037 0.152255
vt 0.872366 0.260860
vt 0.913671 0.070377
vt 0.925768 0.150078
vt 0.957353 0.626516
vt 0.957262 0.626619
vt 0.957249 0.626564
vt 0.889709 0.393451
vt 0.858433 0.350004
vt 0.892770 0.358323
vt 0.897280 0.266327
vt 0.936219 0.447393
vt 0.927010 0.352525
vt 0.966557 0.311898
vt 0.812823 0.632751
vt 0.795319 0.646922
vt 0.796559 0.615053
vt 0.826185 0.646038
vt 0.812871 0.632751
vt 0.853780 0.445331
vt 0.807217 0.433814
vt 0.886207 0.688136
vt 0.929351 0.599490
vt 0.938358 0.653436
vt 0.836189 0.302941
vt 0.975213 0.440191
vt 0.879267 0.586237
vt 0.738337 0.639381
vt 0.768773 0.587339
vt 0.777878 0.693619
vt 0.980323 0.712303
vt 0.932068 0.691714
vt 0.976661 0.658856
vt 0.956678 0.626327
vt 0.957241 0.626620
vt 0.957202 0.627274
vt 0.885385 0.410084
vt 0.884163 0.295625
vt 0.830694 0.617331
vt 0.827769 0.590234
vt 0.957240 0.626583
vt 0.957238 0.626583
vt 0.957239 0.626583
vt 0.957287 0.626412
vt 0.957239 0.626567
vt 0.957237 0.626577
vt 0.957235 0.626574
vt 0.957235 0.626574
vt 0.897023 0.302625
vt 0.908075 0.288405
vt 0.907691 0.288411
vt 0.892005 0.283594
vt 0.884482 0.295526
vt 0.896981 0.302269
vt 0.903925 0.423653
vt 0.842728 0.688211
vt 0.871884 0.773088
vt 0.822486 0.947696
vt 0.855286 0.775513
vt 0.957239 0.626577
vt 0.957244 0.626583
vt 0.901572 0.395198
vt 0.840056 0.271973
vt 0.894085 0.293284
vt 0.894539 0.292536
vt 0.947540 0.297732
vt 0.944006 0.313420
vt 0.946409 0.300313
vt 0.949734 0.299884
vt 0.895488 0.400744
vt 0.895073 0.400674
vt 0.957249 0.626587
vt 0.957246 0.626581
vt 0.957230 0.626585
vt 0.983970 0.597041
vt 0.887964 0.784261
vn 0.3347 0.7197 -0.6083
vn 0.5472 0.2872 0.7862
vn 0.2813 0.4522 -0.8464
vn -0.6873 0.7167 -0.1179
vn -0.3074 -0.0603 0.9497
vn -0.2107 0.4384 0.8737
vn 0.8124 0.4404 0.3823
vn 0.5967 -0.7861 -0.1614
vn 0.1084 -0.3821 -0.9178
vn 0.7472 -0.6329 0.2031
vn -0.7717 0.6199 0.1423
vn -0.7067 -0.1199 0.6973
vn -0.6899 0.5440 -0.4776
vn -0.8518 0.4489 -0.2701
vn 0.9816 -0.0071 -0.1908
vn 0.6821 0.2966 -0.6684
vn 0.3588 -0.4343 0.8262
vn -0.6090 0.7097 0.3541
vn -0.3420 -0.3177 0.8844
vn -0.1040 0.5846 0.8046
vn -0.8174 -0.3926 -0.4217
vn -0.8488 -0.2070 0.4865
vn -0.9671 -0.0603 0.2471
vn 0.2077 -0.1270 0.9699
vn 0.3380 -0.0350 -0.9405
vn 0.8216 0.2481 -0.5133
vn 0.9377 -0.3211 -0.1330
vn -0.1536 0.0905 -0.9840
vn 0.0451 -0.2726 0.9611
vn -0.2207 0.5101 0.8313
vn -0.3732 -0.1450 0.9164
vn 0.9278 -0.1115 0.3560
vn -0.7348 0.6044 0.3079
vn -0.4035 0.6714 -0.6216
vn 0.1585 0.5765 -0.8016
vn -0.8863 -0.4539 -0.0914
vn -0.4454 -0.1051 0.8891
vn -0.7063 0.4831 -0.5174
vn -0.8824 0.4405 0.1650
vn 0.1026 0.6281 0.7714
vn 0.9437 0.2466 -0.2204
vn -0.2346 0.8133 -0.5325
vn -0.2996 -0.6725 0.6767
vn 0.6229 -0.6416 0.4476
vn -0.6630 0.6673 0.3393
vn -0.0189 -0.2873 0.9577
vn 0.6424 0.6679 0.3759
vn -0.9717 0.1015 0.2133
vn 0.1147 0.9833 0.1411
vn 0.0330 0.6802 0.7323
vn 0.8786 0.3532 0.3213
vn -0.3064 -0.1940 0.9319
vn -0.3970 -0.4711 0.7877
vn 0.2925 -0.2466 -0.9239
vn -0.8602 -0.0643 -0.5059
vn 0.3549 -0.5841 -0.7300
vn -0.3108 -0.5059 0.8046
vn -0.7602 -0.5841 -0.2846
vn 0.8204 0.1313 0.5564
vn 0.9717 0.2319 -0.0440
vn 0.6013 0.5564 -0.5734
vn -0.4491 0.8868 -0.1094
vn -0.9724 0.0469 -0.2285
vn 0.8109 -0.5841 0.0343
vn 0.6074 -0.4817 -0.6317
vn 0.5030 0.5274 0.6847
vn 0.5594 0.5311 -0.6364
vn -0.8624 0.3078 -0.4019
vn -0.0447 0.3050 -0.9513
vn 0.5820 0.6068 -0.5414
vn 0.6246 -0.2991 -0.7213
vn -0.8063 0.5826 0.1023
vn 0.7798 -0.5056 0.3691
usemtl Tree1_2.001
s 1
f 16/1/1 23/2/2 25/3/3
f 15/4/4 30/5/5 14/6/6
f 14/6/6 23/2/2 26/7/7
f 53/8/8 40/9/9 42/10/10
f 38/11/11 33/12/12 34/13/13
f 15/4/4 25/3/3 24/14/14
f 59/15/15 35/16/16 32/17/17
f 17/18/18 18/19/19 21/20/20
f 17/18/18 19/21/21 22/22/22
f 22/22/22 19/21/21 18/19/19
f 61/23/23 60/24/24 33/12/12
f 67/25/25 52/26/26 50/27/27
f 33/12/12 60/24/24 32/28/17
f 60/29/24 59/15/15 32/17/17
f 67/25/25 58/30/28 52/26/26
f 21/20/20 51/31/29 56/32/30
f 16/1/1 14/6/6 26/7/7
f 18/19/19 69/33/31 51/31/29
f 69/34/31 68/35/32 51/36/29
f 21/20/20 18/19/19 51/31/29
f 54/37/33 48/38/34 55/39/35
f 36/40/36 33/12/12 38/11/11
f 30/5/5 27/41/37 33/12/12
f 20/42/38 57/43/39 58/30/28
f 7/44/40 49/45/41 8/46/42
f 51/36/29 68/35/32 50/27/27
f 68/35/32 67/25/25 50/27/27
f 19/21/21 20/42/38 58/30/28
f 44/47/43 42/10/10 43/48/44
f 5/49/45 47/50/46 6/51/47
f 30/5/5 24/14/14 27/41/37
f 28/52/48 29/53/49 34/13/13
f 29/53/49 35/16/16 34/13/13
f 29/53/49 25/3/3 35/16/16
f 72/54/50 24/14/14 29/53/49
f 73/55/51 27/41/37 24/14/14
f 19/21/21 69/33/31 18/19/19
f 25/3/3 29/53/49 24/14/14
f 70/56/52 28/52/48 27/41/37
f 71/57/53 29/53/49 28/52/48
f 62/58/54 35/16/16 59/15/15
f 19/21/21 67/25/25 66/59/55
f 63/60/56 65/61/57 1/62/58
f 30/5/5 33/12/12 32/28/17
f 46/63/59 42/10/10 41/64/60
f 57/43/39 21/20/20 56/32/30
f 37/65/61 34/13/13 35/16/16
f 34/13/13 27/41/37 28/52/48
f 40/9/9 55/39/35 48/38/34
f 23/66/2 30/5/5 32/28/17
f 13/67/62 71/57/53 12/68/63
f 13/67/62 73/55/51 72/54/50
f 13/67/62 70/56/52 73/55/51
f 9/69/64 32/17/17 31/70/65
f 10/71/66 32/17/17 9/69/64
f 11/72/67 23/2/2 10/71/66
f 11/72/67 31/70/65 25/3/3
f 39/73/68 62/58/54 36/40/36
f 39/73/68 37/65/61 2/74/69
f 39/73/68 36/40/36 38/11/11
f 4/75/70 48/38/34 41/64/60
f 4/75/70 42/10/10 3/76/71
f 4/75/70 40/9/9 48/38/34
f 47/50/46 44/47/43 43/48/44
f 5/49/45 44/47/43 47/50/46
f 6/51/47 45/77/72 5/49/45
f 6/51/47 43/48/44 46/63/59
f 49/45/41 46/63/59 41/64/60
f 8/46/42 45/77/72 7/44/40
f 8/46/42 41/64/60 48/38/34
f 44/47/43 50/27/27 53/8/8
f 54/37/33 51/36/29 44/47/43
f 55/39/35 56/78/30 54/37/33
f 55/39/35 50/27/27 52/26/26
f 60/29/24 52/26/26 59/15/15
f 61/23/23 56/32/30 60/24/24
f 62/58/54 57/43/39 61/23/23
f 62/58/54 52/26/26 58/30/28
f 67/25/25 1/62/58 66/59/55
f 67/25/25 64/79/73 63/60/56
f 69/34/31 64/79/73 68/35/32
f 66/59/55 65/61/57 69/33/31
f 16/1/1 26/7/7 23/2/2
f 16/1/1 25/3/3 15/4/4
f 14/6/6 30/5/5 23/66/2
f 15/4/4 24/14/14 30/5/5
f 17/18/18 22/22/22 18/19/19
f 17/18/18 21/20/20 20/42/38
f 17/18/18 20/42/38 19/21/21
f 16/1/1 15/4/4 14/6/6
f 54/37/33 45/77/72 48/38/34
f 36/40/36 61/23/23 33/12/12
f 11/72/67 10/71/66 9/69/64
f 44/47/43 53/8/8 42/10/10
f 72/54/50 73/55/51 24/14/14
f 73/55/51 70/56/52 27/41/37
f 19/21/21 66/59/55 69/33/31
f 70/56/52 71/57/53 28/52/48
f 71/57/53 72/54/50 29/53/49
f 62/58/54 37/65/61 35/16/16
f 19/21/21 58/30/28 67/25/25
f 63/60/56 64/79/73 65/61/57
f 44/47/43 45/77/72 54/37/33
f 62/58/54 61/23/23 36/40/36
f 46/63/59 43/48/44 42/10/10
f 57/43/39 20/42/38 21/20/20
f 37/65/61 38/11/11 34/13/13
f 34/13/13 33/12/12 27/41/37
f 40/9/9 53/8/8 55/39/35
f 32/17/17 35/16/16 31/70/65
f 25/3/3 31/70/65 35/16/16
f 12/68/63 71/57/53 70/56/52
f 13/67/62 72/54/50 71/57/53
f 13/67/62 12/68/63 70/56/52
f 10/71/66 23/2/2 32/17/17
f 11/72/67 25/3/3 23/2/2
f 11/72/67 9/69/64 31/70/65
f 39/73/68 2/74/69 62/58/54
f 2/74/69 37/65/61 62/58/54
f 39/73/68 38/11/11 37/65/61
f 4/75/70 41/64/60 42/10/10
f 3/76/71 42/10/10 40/9/9
f 4/75/70 3/76/71 40/9/9
f 5/49/45 45/77/72 44/47/43
f 6/51/47 46/63/59 45/77/72
f 6/51/47 47/50/46 43/48/44
f 49/45/41 7/44/40 46/63/59
f 7/44/40 45/77/72 46/63/59
f 8/46/42 48/38/34 45/77/72
f 8/46/42 49/45/41 41/64/60
f 44/47/43 51/36/29 50/27/27
f 54/37/33 56/78/30 51/36/29
f 55/39/35 52/26/26 56/78/30
f 55/39/35 53/8/8 50/27/27
f 60/29/24 56/78/30 52/26/26
f 61/23/23 57/43/39 56/32/30
f 62/58/54 58/30/28 57/43/39
f 62/58/54 59/15/15 52/26/26
f 67/25/25 63/60/56 1/62/58
f 67/25/25 68/35/32 64/79/73
f 69/34/31 65/61/57 64/79/73
f 66/59/55 1/62/58 65/61/57
