# Blender v2.80 (sub 75) OBJ File: 'NatureFreePack1.blend'
# www.blender.org
mtllib Brown_Mushroom.mtl
o Mushroom2_Cylinder.054
v -0.130099 0.003137 0.001334
v -0.074403 0.128727 0.000638
v -0.094392 -0.000000 -0.092788
v -0.054415 0.152803 -0.060232
v -0.007146 0.000117 -0.127477
v -0.001064 0.182959 -0.085027
v 0.062108 0.002139 -0.074876
v 0.051730 0.191830 -0.056445
v 0.081644 0.005980 0.018553
v 0.071637 0.194348 0.007283
v 0.063777 0.008772 0.098197
v 0.053866 0.186030 0.064946
v 0.000190 0.015383 0.133238
v 0.006192 0.153390 0.086534
v -0.083786 0.012517 0.095188
v -0.048618 0.128899 0.061127
v -0.065545 0.419593 -0.064431
v -0.091907 0.419593 0.000788
v -0.001508 0.419908 -0.091500
v 0.056639 0.423002 -0.061144
v 0.077710 0.425804 0.007231
v 0.057753 0.423002 0.068832
v 0.000067 0.419908 0.092314
v -0.064431 0.419593 0.065545
v -0.285406 0.306859 -0.053159
v -0.141469 0.667598 -0.041943
v -0.147796 0.298311 -0.241384
v -0.080164 0.663789 -0.125798
v 0.082512 0.306324 -0.277880
v 0.012971 0.664790 -0.141869
v 0.265715 0.325880 -0.142428
v 0.079171 0.668871 -0.080658
v 0.271187 0.343972 0.080102
v 0.083814 0.674771 0.021895
v 0.133577 0.352520 0.268328
v 0.022508 0.678579 0.105750
v -0.066504 0.346517 0.311988
v -0.068834 0.678065 0.121785
v -0.249707 0.326961 0.176536
v -0.135033 0.673984 0.060575
v -0.018457 0.813352 -0.021385
v -0.204775 0.461829 -0.044121
v -0.107963 0.455815 -0.176542
v 0.054065 0.461453 -0.202218
v 0.186352 0.475437 -0.106119
v 0.205267 0.489096 0.054097
v 0.108475 0.495116 0.186518
v -0.047373 0.489955 0.213575
v -0.179659 0.475971 0.117475
vt 0.887802 0.279027
vt 0.787545 0.207446
vt 0.862550 0.164231
vt 0.848646 0.310658
vt 0.733896 0.252722
vt 0.825335 0.348838
vt 0.696667 0.306642
vt 0.804512 0.380512
vt 0.664479 0.373983
vt 0.774262 0.453474
vt 0.644260 0.434068
vt 0.751053 0.489174
vt 0.637515 0.489287
vt 0.988531 0.508604
vt 0.738809 0.540940
vt 0.640810 0.562521
vt 0.943115 0.158690
vt 0.988001 0.054479
vt 0.994732 0.110101
vt 0.873419 0.442458
vt 0.874031 0.429660
vt 0.894749 0.420465
vt 0.880422 0.421081
vt 0.787499 0.417548
vt 0.871414 0.456934
vt 0.922645 0.430227
vt 0.885501 0.473647
vt 0.940388 0.269172
vt 0.936472 0.018641
vt 0.805951 0.111432
vt 0.864273 0.005334
vt 0.806678 0.039279
vt 0.225489 0.239696
vt 0.418898 0.228379
vt 0.294047 0.300765
vt 0.464031 0.295843
vt 0.322850 0.348634
vt 0.544522 0.384022
vt 0.327583 0.390890
vt 0.315499 0.429843
vt 0.464363 0.486732
vt 0.292142 0.478927
vt 0.411139 0.562625
vt 0.238945 0.543697
vt 0.377370 0.639468
vt 0.612224 0.633660
vt 0.077844 0.669559
vt 0.350518 0.016949
vt 0.063493 0.144720
vt 0.252708 0.447445
vt 0.201101 0.467354
vt 0.013821 0.394620
vt 0.374735 0.751895
vt 0.612224 0.124908
vt 0.379647 0.146125
vt 0.198995 0.336097
vt 0.283037 0.413858
vt 0.297334 0.387477
vt 0.288643 0.365877
vt 0.261123 0.345899
vn -0.9807 0.1861 0.0593
vn -0.6357 -0.5069 -0.5822
vn -0.8772 -0.4767 0.0578
vn -0.7625 0.1244 -0.6350
vn 0.0888 -0.5268 -0.8454
vn 0.0309 0.0666 -0.9973
vn 0.6755 -0.5952 -0.4353
vn 0.7776 0.0257 -0.6283
vn 0.7739 -0.6323 0.0372
vn 0.7492 0.0479 0.6606
vn 0.6288 -0.5556 0.5440
vn -0.0416 0.1315 0.9904
vn 0.0018 -0.4185 0.9082
vn -0.5701 0.5997 0.5616
vn -0.7199 0.1899 0.6676
vn -0.6145 -0.4466 0.6504
vn 0.7552 0.6555 0.0075
vn 0.5910 0.6188 -0.5175
vn -0.5741 0.6022 -0.5547
vn 0.0222 0.5906 -0.8067
vn 0.9999 0.0115 -0.0054
vn 0.5630 0.6166 0.5504
vn -0.8016 0.5978 0.0093
vn -0.0156 0.6011 0.7990
vn -0.8919 0.3777 -0.2485
vn -0.4709 0.4372 -0.7663
vn -0.4849 0.3615 -0.7964
vn 0.2217 0.4680 -0.8555
vn 0.1996 0.4050 -0.8922
vn 0.7327 0.5351 -0.4205
vn 0.7491 0.4777 -0.4590
vn 0.8519 0.4872 0.1922
vn 0.7801 0.5878 0.2143
vn 0.4791 0.5126 0.7125
vn 0.4019 0.5997 0.6920
vn -0.2015 0.4984 0.8432
vn -0.2703 0.5684 0.7771
vn 0.0367 0.9971 -0.0660
vn -0.7944 0.4243 0.4347
vn -0.7889 0.5085 0.3450
vn 0.4759 -0.3782 0.7940
vn -0.1802 -0.3514 0.9187
vn -0.7568 -0.4165 0.5038
vn -0.8469 0.4561 -0.2733
vn -0.8616 -0.4755 -0.1775
vn 0.8632 -0.4234 0.2752
vn 0.8199 -0.4119 -0.3977
vn 0.2378 -0.4763 -0.8465
vn -0.4517 -0.5010 -0.7383
usemtl Mushroom4_1
s 1
f 2/1/1 3/2/2 1/3/3
f 4/4/4 5/5/5 3/2/2
f 6/6/6 7/7/7 5/5/5
f 8/8/8 9/9/9 7/7/7
f 9/9/9 12/10/10 11/11/11
f 11/11/11 14/12/12 13/13/13
f 14/12/12 24/14/14 16/15/15
f 13/13/13 16/15/15 15/16/16
f 15/17/16 2/1/1 1/3/3
f 11/18/11 13/19/13 15/17/16
f 21/20/17 20/21/18 17/22/19
f 6/6/6 17/22/19 19/23/20
f 10/24/21 22/25/22 12/10/10
f 2/1/1 24/14/14 18/26/23
f 4/4/4 18/26/23 17/22/19
f 8/8/8 19/23/20 20/21/18
f 12/10/10 23/27/24 14/12/12
f 10/24/21 20/21/18 21/20/17
f 2/1/1 4/4/4 3/2/2
f 4/4/4 6/6/6 5/5/5
f 6/6/6 8/8/8 7/7/7
f 8/8/8 10/24/21 9/9/9
f 9/9/9 10/24/21 12/10/10
f 11/11/11 12/10/10 14/12/12
f 14/12/12 23/27/24 24/14/14
f 13/13/13 14/12/12 16/15/15
f 15/17/16 16/28/15 2/1/1
f 15/17/16 1/3/3 9/29/9
f 1/3/3 3/30/2 7/31/7
f 3/30/2 5/32/5 7/31/7
f 7/31/7 9/29/9 1/3/3
f 9/29/9 11/18/11 15/17/16
f 19/23/20 17/22/19 20/21/18
f 17/22/19 18/26/23 21/20/17
f 18/26/23 24/14/14 21/20/17
f 24/14/14 23/27/24 21/20/17
f 23/27/24 22/25/22 21/20/17
f 6/6/6 4/4/4 17/22/19
f 10/24/21 21/20/17 22/25/22
f 2/1/1 16/28/15 24/14/14
f 4/4/4 2/1/1 18/26/23
f 8/8/8 6/6/6 19/23/20
f 12/10/10 22/25/22 23/27/24
f 10/24/21 8/8/8 20/21/18
usemtl Mushroom4_2
f 42/33/25 28/34/26 43/35/27
f 43/35/27 30/36/28 44/37/29
f 44/37/29 32/38/30 45/39/31
f 32/38/30 46/40/32 45/39/31
f 34/41/33 47/42/34 46/40/32
f 36/43/35 48/44/36 47/42/34
f 38/45/37 36/43/35 41/46/38
f 38/45/37 49/47/39 48/44/36
f 40/48/40 42/33/25 49/49/39
f 35/50/41 37/51/42 39/52/43
f 34/41/33 32/38/30 41/46/38
f 40/53/40 38/45/37 41/46/38
f 30/36/28 28/34/26 41/54/38
f 36/43/35 34/41/33 41/46/38
f 26/55/44 40/48/40 41/54/38
f 28/34/26 26/55/44 41/54/38
f 32/38/30 30/36/28 41/54/38
f 49/49/39 25/56/45 39/52/43
f 37/51/42 49/47/39 39/52/43
f 35/50/41 48/44/36 37/51/42
f 33/57/46 47/42/34 35/50/41
f 45/39/31 33/57/46 31/58/47
f 44/37/29 31/58/47 29/59/48
f 27/60/49 44/37/29 29/59/48
f 25/56/45 43/35/27 27/60/49
f 42/33/25 26/55/44 28/34/26
f 43/35/27 28/34/26 30/36/28
f 44/37/29 30/36/28 32/38/30
f 32/38/30 34/41/33 46/40/32
f 34/41/33 36/43/35 47/42/34
f 36/43/35 38/45/37 48/44/36
f 38/45/37 40/53/40 49/47/39
f 40/48/40 26/55/44 42/33/25
f 39/52/43 25/56/45 33/57/46
f 25/56/45 27/60/49 33/57/46
f 27/60/49 29/59/48 33/57/46
f 29/59/48 31/58/47 33/57/46
f 33/57/46 35/50/41 39/52/43
f 49/49/39 42/33/25 25/56/45
f 37/51/42 48/44/36 49/47/39
f 35/50/41 47/42/34 48/44/36
f 33/57/46 46/40/32 47/42/34
f 45/39/31 46/40/32 33/57/46
f 44/37/29 45/39/31 31/58/47
f 27/60/49 43/35/27 44/37/29
f 25/56/45 42/33/25 43/35/27
